<?xml version="1.0" encoding="utf-8"?>
<svg xmlns="http://www.w3.org/2000/svg" viewBox="-0.01 0 32.05 32" width="32.05px" height="32px"><defs><style>.cls-1{fill:#4D4634;}.cls-2{fill:#4D4634;}</style></defs><path class="cls-2" d="M23.32,0H8.74A8.73,8.73,0,0,0,0,8.73V23.32A8.72,8.72,0,0,0,8.74,32H23.32a8.72,8.72,0,0,0,8.73-8.72V8.73A8.73,8.73,0,0,0,23.32,0ZM16.59,20.1a4,4,0,0,1-1.07.76,3.94,3.94,0,0,1-1.47.37h-.43a3.94,3.94,0,0,1-1.47-.37,4,4,0,0,1-1.07-.76L5.81,14.83a4,4,0,0,1-.76-1.07,3.94,3.94,0,0,1-.37-1.47,3.09,3.09,0,0,1,0-.43,3.94,3.94,0,0,1,.37-1.47,4,4,0,0,1,.76-1.07,4.1,4.1,0,0,1,1.08-.77,3.89,3.89,0,0,1,1.46-.37h.43a3.89,3.89,0,0,1,1.47.37,4.1,4.1,0,0,1,1.08.77l.12.12-2,2-.12-.13A1.1,1.1,0,0,0,8.57,11a1.07,1.07,0,0,0-.76,1.82l5.27,5.27a1.1,1.1,0,0,0,1.51,0l.12-.13,2,2Zm2.63-.88a1.37,1.37,0,0,1-1,.41,1.39,1.39,0,0,1-1-.41l-4.39-4.39a1.42,1.42,0,1,1,2-2l4.38,4.39A1.4,1.4,0,0,1,19.22,19.22Zm8.16,1A3.84,3.84,0,0,1,27,21.65a4.06,4.06,0,0,1-.76,1.08,3.84,3.84,0,0,1-1.08.76,3.9,3.9,0,0,1-1.46.38h-.44a3.9,3.9,0,0,1-1.46-.38,3.66,3.66,0,0,1-1.07-.76l-.13-.12,2-2,.12.13a1,1,0,0,0,.75.31,1.07,1.07,0,0,0,.75-1.82L19,14a1.08,1.08,0,0,0-.76-.31,1.06,1.06,0,0,0-.75.31l-.13.13-2-2,.12-.12a4.06,4.06,0,0,1,1.08-.76A3.75,3.75,0,0,1,18,10.82h.43a3.71,3.71,0,0,1,1.46.37A3.76,3.76,0,0,1,21,12l5.27,5.27A3.86,3.86,0,0,1,27,18.29a3.93,3.93,0,0,1,.37,1.46A3.23,3.23,0,0,1,27.38,20.19Z" transform="matrix(1, 0, 0, 1, -0.010000000707805157, 0)" id="object-0"/></svg>